<svg aria-hidden="true" style="position:absolute;width:0;height:0;overflow:hidden" xmlns="http://www.w3.org/2000/svg">
  <defs>
    <symbol id="icon-fb" viewBox="0 0 30 32">
      <path d="M15.272 31.454h-0.067c-8.384 0-15.205-6.821-15.205-15.205v-0.067c0-8.384 6.821-15.205 15.205-15.205h0.067c8.384 0 15.205 6.821 15.205 15.205v0.067c0 8.384-6.821 15.205-15.205 15.205zM15.205 2.009c-7.815 0-14.173 6.358-14.173 14.173v0.067c0 7.815 6.358 14.173 14.173 14.173h0.067c7.815 0 14.173-6.358 14.173-14.173v-0.067c0-7.815-6.358-14.173-14.173-14.173h-0.067z"></path>
      <path d="M17.288 12.799v3.207h3.968l-0.628 4.32h-3.339v9.954c-0.67 0.093-1.354 0.141-2.050 0.141-0.803 0-1.591-0.064-2.358-0.188v-9.907h-3.659v-4.32h3.659v-3.924c0-2.435 1.973-4.409 4.409-4.409v0.002c0.007 0 0.013-0.002 0.021-0.002h3.947v3.736h-2.579c-0.766 0-1.389 0.622-1.389 1.389l-0.001 0.001z"></path>
    </symbol>
    <symbol id="icon-tiktok" viewBox="0 0 30 32">
      <path d="M22.354 12.233v2.78c-0.486-0.047-1.117-0.158-1.815-0.414-0.912-0.334-1.59-0.791-2.035-1.145v5.619l-0.011-0.018c0.007 0.111 0.011 0.225 0.011 0.339 0 2.79-2.27 5.062-5.061 5.062s-5.061-2.272-5.061-5.062 2.27-5.063 5.061-5.063c0.273 0 0.541 0.022 0.803 0.064v2.74c-0.252-0.090-0.522-0.138-0.803-0.138-1.321 0-2.397 1.075-2.397 2.397s1.076 2.397 2.397 2.397c1.321 0 2.397-1.076 2.397-2.397 0-0.050-0.001-0.099-0.004-0.149v-10.919h2.777c0.010 0.235 0.020 0.472 0.030 0.708 0.019 0.463 0.184 0.908 0.471 1.272 0.337 0.428 0.835 0.925 1.535 1.322 0.655 0.37 1.27 0.53 1.705 0.606v-0.002z"></path>
      <path d="M15.272 31.454h-0.067c-8.381 0-15.2-6.821-15.2-15.205v-0.067c0-8.384 6.819-15.205 15.2-15.205h0.067c8.381 0 15.2 6.821 15.2 15.205v0.067c0 8.384-6.819 15.205-15.2 15.205zM15.205 2.009c-7.813 0-14.169 6.358-14.169 14.173v0.067c0 7.815 6.356 14.173 14.169 14.173h0.067c7.813 0 14.169-6.358 14.169-14.173v-0.067c0-7.815-6.356-14.173-14.169-14.173h-0.067z"></path>
    </symbol>
    <symbol id="icon-youtube" viewBox="0 0 32 32">
      <path d="M15.731 31.238c-8.403 0-15.238-6.835-15.238-15.238s6.835-15.238 15.238-15.238c8.403 0 15.238 6.835 15.238 15.238s-6.835 15.238-15.238 15.238zM15.731 1.796c-7.832 0-14.204 6.372-14.204 14.204s6.372 14.204 14.204 14.204c7.832 0 14.204-6.372 14.204-14.204s-6.372-14.204-14.204-14.204z"></path>
      <path d="M29.935 16c0-7.587-5.98-13.804-13.475-14.185l-0.729-0.019c-7.832 0-14.204 6.372-14.204 14.204l0.019 0.729c0.381 7.494 6.597 13.475 14.184 13.475s13.804-5.981 14.185-13.475l0.019-0.729zM30.95 16.783c-0.409 8.040-7.079 14.455-15.219 14.455s-14.81-6.415-15.219-14.455l-0.019-0.783c0-8.403 6.835-15.238 15.238-15.238l0.783 0.019c8.040 0.409 14.455 7.079 14.455 15.219l-0.019 0.783z"></path>
      <path d="M25.001 12.949c-0.116-1.118-0.365-2.354-1.283-3.004-0.711-0.504-1.645-0.522-2.517-0.521-1.843 0.001-3.688 0.003-5.531 0.004-1.773 0.002-3.546 0.003-5.319 0.005-0.741 0.001-1.461-0.057-2.149 0.264-0.591 0.275-1.053 0.799-1.331 1.381-0.386 0.81-0.466 1.727-0.513 2.623-0.086 1.631-0.077 3.267 0.026 4.897 0.076 1.19 0.267 2.504 1.186 3.263 0.815 0.671 1.965 0.704 3.023 0.706 3.356 0.003 6.712 0.006 10.069 0.008 0.43 0.001 0.879-0.007 1.318-0.055 0.863-0.093 1.685-0.34 2.24-0.98 0.56-0.645 0.703-1.541 0.788-2.391 0.207-2.061 0.205-4.141-0.007-6.2zM13.73 18.888v-5.777l5.003 2.888-5.003 2.889z"></path>
      <path d="M21.862 9.435c0.664 0.028 1.323 0.133 1.856 0.51 0.918 0.65 1.167 1.886 1.283 3.005 0.212 2.060 0.214 4.14 0.007 6.201-0.085 0.849-0.229 1.746-0.789 2.39-0.555 0.639-1.377 0.886-2.24 0.979-0.439 0.048-0.888 0.056-1.319 0.055l-10.068-0.007c-0.991-0.001-2.064-0.031-2.866-0.588l-0.156-0.118c-0.805-0.663-1.052-1.754-1.152-2.813l-0.034-0.451c-0.077-1.223-0.102-2.448-0.073-3.673l0.046-1.225c0.047-0.895 0.128-1.812 0.513-2.622 0.244-0.51 0.628-0.975 1.116-1.268l0.216-0.113c0.516-0.24 1.050-0.269 1.597-0.268l0.551 0.003c1.773-0.002 3.547-0.002 5.32-0.004 1.843-0.001 3.688-0.003 5.531-0.004l0.661 0.010zM18.437 10.949c-0.922 0.001-1.845 0.001-2.766 0.002l0.002 0.002c-0.877 0.001-1.753 0.001-2.629 0.001l8.737 5.045-8.737 5.046c2.54 0.002 5.080 0.004 7.621 0.006h0.003l0.598-0.007c0.191-0.007 0.375-0.020 0.552-0.039l0.256-0.034c0.555-0.090 0.841-0.25 0.995-0.428l0.076-0.1c0.165-0.255 0.272-0.682 0.348-1.444 0.197-1.958 0.194-3.935-0.007-5.891l-0.051-0.409c-0.111-0.76-0.279-1.191-0.488-1.414l-0.108-0.095c-0.252-0.178-0.677-0.242-1.634-0.241l-2.766 0.001zM10.354 10.957c-0.81 0.001-1.124-0.014-1.393 0.076l-0.115 0.046c-0.205 0.096-0.44 0.322-0.6 0.656-0.181 0.38-0.27 0.834-0.323 1.417l-0.043 0.63c-0.083 1.572-0.073 3.149 0.025 4.722 0.079 1.245 0.281 1.891 0.632 2.182 0.328 0.27 0.901 0.358 2.057 0.359h1.612v-10.088l-1.853 0.002zM13.73 18.889l5.001-2.89-5.001-2.888v5.778z"></path>
    </symbol>
    <symbol id="icon-instagram" viewBox="0 0 32 32">
      <path d="M15.765 31.237h-0.067c-8.384 0-15.205-6.821-15.205-15.205v-0.067c0-8.384 6.821-15.205 15.205-15.205h0.067c8.384 0 15.205 6.821 15.205 15.205v0.067c0 8.384-6.821 15.205-15.205 15.205zM15.698 1.793c-7.815 0-14.173 6.358-14.173 14.173v0.067c0 7.815 6.358 14.173 14.173 14.173h0.067c7.815 0 14.173-6.358 14.173-14.173v-0.067c0-7.815-6.358-14.173-14.173-14.173h-0.067z"></path>
      <path d="M23.242 11.833c0-1.527-1.166-2.789-2.653-2.94l-0.302-0.015h-9.11l-0.302 0.015c-1.488 0.151-2.653 1.413-2.653 2.94v8.335l0.015 0.301c0.141 1.389 1.249 2.497 2.638 2.638l0.302 0.015h9.11l0.302-0.015c1.389-0.142 2.496-1.25 2.637-2.638l0.016-0.301v-8.335zM24.853 20.168l-0.006 0.234c-0.122 2.409-2.121 4.33-4.56 4.33l-9.345-0.006c-2.331-0.118-4.206-1.993-4.324-4.324l-0.006-0.234v-8.335c0-2.438 1.922-4.437 4.33-4.56l0.235-0.006h9.11c2.517 0 4.566 2.048 4.566 4.565v8.335z"></path>
      <path d="M16.166 11.775c2.138 0.218 3.812 2.028 3.812 4.223l-0.022 0.435c-0.218 2.139-2.030 3.812-4.225 3.812l-0.433-0.022c-1.996-0.203-3.587-1.794-3.79-3.79l-0.022-0.435c0-2.341 1.904-4.245 4.246-4.245l0.435 0.022zM15.731 13.365c-1.453 0-2.635 1.182-2.635 2.635l0.013 0.269c0.126 1.239 1.114 2.226 2.353 2.353l0.269 0.013c1.363 0 2.487-1.039 2.622-2.366l0.015-0.269c0-1.363-1.040-2.487-2.368-2.622l-0.269-0.013z"></path>
      <path d="M20.751 11.295l-0.007-0.076c-0.030-0.149-0.147-0.266-0.296-0.296l-0.076-0.007c-0.211 0-0.379 0.169-0.379 0.379l0.007 0.076c0.035 0.173 0.187 0.304 0.372 0.304v0.765l-0.117-0.006c-0.576-0.059-1.027-0.546-1.027-1.138 0-0.631 0.513-1.144 1.144-1.144s1.144 0.513 1.144 1.144l-0.006 0.118c-0.059 0.576-0.548 1.027-1.138 1.027v-0.765c0.185-0 0.337-0.13 0.372-0.304l0.007-0.076z"></path>
    </symbol>
    <symbol id="icon-close" viewBox="0 0 32 32">
      <path stroke-linejoin="miter" stroke-linecap="square" stroke-miterlimit="4" stroke-width="4.3636" d="M4.918 27.636l22.718-23.272"></path>
      <path stroke-linejoin="miter" stroke-linecap="square" stroke-miterlimit="4" stroke-width="4.3636" d="M4.364 4.364l22.718 23.272"></path>
    </symbol>
    <symbol id="icon-burger" viewBox="0 0 38 32">
      <path stroke-linejoin="round" stroke-linecap="square" stroke-miterlimit="4" stroke-width="4.8" d="M3.2 3.2h32M3.2 16h32M3.2 28.8h32"></path>
    </symbol>
    <symbol id="icon-plus" viewBox="0 0 33 32">
      <path stroke-linejoin="round" stroke-linecap="square" stroke-miterlimit="4" stroke-width="4.9231" d="M2.588 16h27.077M16.126 2.462v27.077"></path>
    </symbol>
    <symbol id="icon-minus" viewBox="0 0 33 32">
      <path stroke-linejoin="round" stroke-linecap="square" stroke-miterlimit="4" stroke-width="4.9231" d="M2.588 16h27.077"></path>
    </symbol>
  </defs>
</svg>
